<?xml version="1.0" encoding="UTF-8"?>
<svg width="75px" height="45px" viewBox="0 0 75 45" version="1.1" xmlns="http://www.w3.org/2000/svg" xmlns:xlink="http://www.w3.org/1999/xlink">
    <!-- Generator: Sketch 63.1 (92452) - https://sketch.com -->
    <title>Logo / Black</title>
    <desc>Created with Sketch.</desc>
    <g id="Components-for-Development" stroke="none" stroke-width="1" fill="none" fill-rule="evenodd">
        <g id="Mobile-Copy-2" transform="translate(-33.000000, -30.000000)" fill="#000000" fill-rule="nonzero">
            <g id="Navbar-Copy-2">
                <g id="Logo-/-Black" transform="translate(33.000000, 30.000000)">
                    <path d="M7.12207792,16.2580645 C11.6337662,16.2580645 14.8363636,12.6116129 14.8363636,8.12903226 C14.8363636,3.64645161 11.6337662,0 7.12207792,0 L0.974025974,0 L0.974025974,16.2580645 L7.12207792,16.2580645 Z M7.12207792,15.0967742 L2.21298701,15.0967742 L2.21298701,1.16129032 L7.12207792,1.16129032 C10.9792208,1.16129032 13.6207792,4.27354839 13.6207792,8.12903226 C13.6207792,11.9845161 10.9792208,15.0967742 7.12207792,15.0967742 Z M27.3896104,16.2580645 L27.3896104,15.0967742 L19.2077922,15.0967742 L19.2077922,8.64 L26.6883117,8.64 L26.6883117,7.47870968 L19.2077922,7.47870968 L19.2077922,1.16129032 L27.2727273,1.16129032 L27.2727273,0 L17.9688312,0 L17.9688312,16.2580645 L27.3896104,16.2580645 Z M31.6675325,16.2580645 L31.6675325,2.27612903 L41.3220779,16.2580645 L42.4207792,16.2580645 L42.4207792,0 L41.1818182,0 L41.1818182,13.9819355 L31.5038961,0 L30.4285714,0 L30.4285714,16.2580645 L31.6675325,16.2580645 Z M47.7272727,16.2580645 L47.7272727,0 L46.4883117,0 L46.4883117,16.2580645 L47.7272727,16.2580645 Z M61.2155844,16.2580645 L61.2155844,15.0967742 L52.1454545,15.0967742 L60.9818182,1.16129032 L60.9818182,0 L51,0 L51,1.16129032 L59.6025974,1.16129032 L50.7662338,15.0967742 L50.7662338,16.2580645 L61.2155844,16.2580645 Z" id="DENIZ"></path>
                    <path d="M8.43896104,44.8335484 C13.161039,44.8335484 16.8779221,41.0941935 16.8779221,36.4490323 C16.8779221,31.803871 13.161039,28.0645161 8.43896104,28.0645161 C3.71688312,28.0645161 0,31.803871 0,36.4490323 C0,41.0941935 3.71688312,44.8335484 8.43896104,44.8335484 Z M8.43896104,43.6490323 C4.39480519,43.6490323 1.23896104,40.443871 1.23896104,36.4490323 C1.23896104,32.4541935 4.39480519,29.2490323 8.43896104,29.2490323 C12.4831169,29.2490323 15.638961,32.4541935 15.638961,36.4490323 C15.638961,40.443871 12.4831169,43.6490323 8.43896104,43.6490323 Z M21.2493506,44.5780645 L21.2493506,37.9122581 L26.4155844,37.9122581 L30.3428571,44.5780645 L31.7688312,44.5780645 L27.7012987,37.7496774 C29.7818182,37.1922581 31.3012987,35.3341935 31.3012987,33.1277419 C31.3012987,30.48 29.1272727,28.32 26.4623377,28.32 L20.0103896,28.32 L20.0103896,44.5780645 L21.2493506,44.5780645 Z M26.4623377,36.7509677 L21.2493506,36.7509677 L21.2493506,29.4812903 L26.4623377,29.4812903 C28.4493506,29.4812903 30.0623377,31.1070968 30.0623377,33.1277419 C30.0623377,35.1251613 28.4493506,36.7509677 26.4623377,36.7509677 Z M41.4,44.5780645 C43.8779221,44.5780645 45.8649351,42.603871 45.8649351,40.1419355 C45.8649351,38.283871 44.6961039,36.7741935 43.0597403,36.1470968 C44.3220779,35.4735484 45.1636364,34.1729032 45.1636364,32.5935484 C45.1636364,30.2477419 43.2467532,28.32 40.8623377,28.32 L34.3402597,28.32 L34.3402597,44.5780645 L41.4,44.5780645 Z M40.8623377,35.7058065 L35.5792208,35.7058065 L35.5792208,29.4812903 L40.8623377,29.4812903 C42.5454545,29.4812903 43.9246753,30.8748387 43.9246753,32.5935484 C43.9246753,34.3122581 42.5454545,35.7058065 40.8623377,35.7058065 Z M41.4,43.4167742 L35.5792208,43.4167742 L35.5792208,36.8670968 L41.4,36.8670968 C43.1766234,36.8670968 44.625974,38.3303226 44.625974,40.1419355 C44.625974,41.9535484 43.1766234,43.4167742 41.4,43.4167742 Z M48.5298701,44.5780645 L50.1194805,40.443871 L58.3246753,40.443871 L59.9142857,44.5780645 L61.2233766,44.5780645 L54.8883117,28.32 L53.5792208,28.32 L47.2207792,44.5780645 L48.5298701,44.5780645 Z M57.8805195,39.2825806 L50.587013,39.2825806 L54.2337662,29.8296774 L57.8805195,39.2825806 Z M69.0077922,44.5780645 L69.0077922,37.8890323 L74.9688312,28.32 L73.5662338,28.32 L68.4,36.7045161 L63.2103896,28.32 L61.8077922,28.32 L67.7688312,37.8890323 L67.7688312,44.5780645 L69.0077922,44.5780645 Z" id="ORBAY"></path>
                </g>
            </g>
        </g>
    </g>
</svg>